<?xml version="1.0" standalone="no"?>
<!DOCTYPE svg PUBLIC "-//W3C//DTD SVG 20010904//EN"
 "http://www.w3.org/TR/2001/REC-SVG-20010904/DTD/svg10.dtd">
<svg version="1.0" xmlns="http://www.w3.org/2000/svg"
 width="138.000000pt" height="140.000000pt" viewBox="0 0 138.000000 140.000000"
 preserveAspectRatio="xMidYMid meet">
<metadata>
Created by potrace 1.15, written by Peter Selinger 2001-2017
</metadata>
<g transform="translate(0.000000,140.000000) scale(0.100000,-0.100000)"
fill="#000000" stroke="none">
<path d="M540 1343 c-49 -12 -60 -17 -45 -23 11 -4 124 -45 250 -90 246 -88
283 -104 302 -129 27 -35 12 -94 -108 -429 -168 -468 -170 -472 -238 -472 -21
0 -153 44 -316 104 -154 58 -282 103 -284 101 -10 -10 70 -123 126 -178 149
-148 356 -218 558 -187 412 62 664 464 540 860 -55 172 -172 308 -340 391
-135 67 -300 86 -445 52z"/>
<path d="M298 1232 c-21 -15 -38 -29 -38 -32 0 -3 82 -34 183 -69 255 -90 257
-91 257 -148 0 -38 -151 -456 -178 -492 -32 -43 -63 -38 -281 42 l-201 74 0
-28 c0 -19 8 -34 23 -43 58 -37 478 -216 506 -216 43 0 68 14 86 49 17 33 145
601 145 644 0 43 -24 80 -67 103 -43 24 -366 144 -386 144 -6 -1 -29 -13 -49
-28z"/>
<path d="M162 1097 l-22 -32 37 -12 c163 -56 265 -98 273 -113 7 -14 0 -47
-30 -130 -51 -141 -56 -150 -85 -150 -23 0 -254 80 -288 100 -15 9 -17 6 -17
-22 0 -33 0 -33 163 -104 89 -40 172 -75 184 -78 41 -13 57 20 96 194 53 236
53 231 25 256 -17 15 -293 125 -311 124 -1 0 -12 -15 -25 -33z"/>
<path d="M136 948 c-31 -108 -39 -149 -30 -157 12 -11 214 -85 218 -80 10 11
45 203 39 209 -9 8 -194 80 -205 80 -4 0 -14 -24 -22 -52z"/>
</g>
</svg>
