<?xml version="1.0" encoding="UTF-8"?>
<!DOCTYPE svg PUBLIC "-//W3C//DTD SVG 1.1//EN" "http://www.w3.org/Graphics/SVG/1.1/DTD/svg11.dtd">
<svg xmlns="http://www.w3.org/2000/svg" version="1.1" width="500px" height="500px" style="shape-rendering:geometricPrecision; text-rendering:geometricPrecision; image-rendering:optimizeQuality; fill-rule:evenodd; clip-rule:evenodd" xmlns:xlink="http://www.w3.org/1999/xlink">
<g><path style="opacity:0.993" fill="#e94924" d="M 230.5,-0.5 C 243.5,-0.5 256.5,-0.5 269.5,-0.5C 369.91,11.4339 440.743,63.4339 482,155.5C 490.849,178.56 496.682,202.226 499.5,226.5C 499.5,241.5 499.5,256.5 499.5,271.5C 489.13,356.656 447.463,421.489 374.5,466C 311.534,500.364 245.534,507.697 176.5,488C 113.03,467.35 64.6969,428.183 31.5,370.5C 101.812,396.653 172.146,422.82 242.5,449C 260.97,454.601 275.47,449.434 286,433.5C 289.527,427.779 292.527,421.779 295,415.5C 325.136,331.424 355.47,247.424 386,163.5C 391.012,150.248 392.679,136.581 391,122.5C 386.46,110.962 378.294,103.129 366.5,99C 293.873,73.3395 221.539,47.1728 149.5,20.5C 175.413,9.27176 202.413,2.27176 230.5,-0.5 Z"/></g>
<g><path style="opacity:0.999" fill="#fefefd" d="M 149.5,20.5 C 221.539,47.1728 293.873,73.3395 366.5,99C 378.294,103.129 386.46,110.962 391,122.5C 392.679,136.581 391.012,150.248 386,163.5C 355.47,247.424 325.136,331.424 295,415.5C 292.527,421.779 289.527,427.779 286,433.5C 275.47,449.434 260.97,454.601 242.5,449C 172.146,422.82 101.812,396.653 31.5,370.5C 22.9375,355.701 16.2708,340.034 11.5,323.5C 71.3558,350.593 131.356,377.427 191.5,404C 218.124,412.438 236.29,403.604 246,377.5C 262.7,303.425 279.367,229.425 296,155.5C 297.967,130.612 287.467,113.112 264.5,103C 211.843,83.3932 159.177,63.8932 106.5,44.5C 119.695,34.7292 134.028,26.7292 149.5,20.5 Z"/></g>
<g><path style="opacity:0.999" fill="#e94924" d="M 106.5,44.5 C 159.177,63.8932 211.843,83.3932 264.5,103C 287.467,113.112 297.967,130.612 296,155.5C 279.367,229.425 262.7,303.425 246,377.5C 236.29,403.604 218.124,412.438 191.5,404C 131.356,377.427 71.3558,350.593 11.5,323.5C 6.65484,308.953 3.3215,293.953 1.5,278.5C 7.222,282.694 13.5553,285.861 20.5,288C 64.5772,304.137 108.577,320.47 152.5,337C 168.558,342.556 179.725,337.389 186,321.5C 205.288,268.593 224.288,215.593 243,162.5C 245.315,152.784 242.815,144.618 235.5,138C 180.159,117.178 124.825,96.6781 69.5,76.5C 80.6274,64.3679 92.9607,53.7012 106.5,44.5 Z"/></g>
<g><path style="opacity:0.999" fill="#fefdfc" d="M 69.5,76.5 C 124.825,96.6781 180.159,117.178 235.5,138C 242.815,144.618 245.315,152.784 243,162.5C 224.288,215.593 205.288,268.593 186,321.5C 179.725,337.389 168.558,342.556 152.5,337C 108.577,320.47 64.5772,304.137 20.5,288C 13.5553,285.861 7.222,282.694 1.5,278.5C 0.873439,273.859 0.540106,269.193 0.5,264.5C 3.1273,261.523 6.46063,260.19 10.5,260.5C 15.6085,261.146 20.6085,262.313 25.5,264C 60.7501,279.861 96.0834,295.528 131.5,311C 144.474,312.429 152.974,306.929 157,294.5C 166.224,252.827 175.558,211.16 185,169.5C 187.326,155.147 181.826,144.98 168.5,139C 132.275,125.388 95.942,112.055 59.5,99C 57.6266,97.2962 55.9599,95.4628 54.5,93.5C 58.8041,87.2294 63.8041,81.5628 69.5,76.5 Z"/></g>
<g><path style="opacity:0.997" fill="#e94a25" d="M 54.5,93.5 C 55.9599,95.4628 57.6266,97.2962 59.5,99C 95.942,112.055 132.275,125.388 168.5,139C 181.826,144.98 187.326,155.147 185,169.5C 175.558,211.16 166.224,252.827 157,294.5C 152.974,306.929 144.474,312.429 131.5,311C 96.0834,295.528 60.7501,279.861 25.5,264C 20.6085,262.313 15.6085,261.146 10.5,260.5C 6.46063,260.19 3.1273,261.523 0.5,264.5C 0.794717,262.265 0.461384,260.265 -0.5,258.5C -0.5,252.167 -0.5,245.833 -0.5,239.5C 0.476669,236.713 0.810002,233.713 0.5,230.5C 2.97741,232.241 5.64408,233.741 8.5,235C 39.2427,245.803 69.9094,256.803 100.5,268C 110.813,271.018 118.313,267.852 123,258.5C 132.333,232.5 141.667,206.5 151,180.5C 154.634,168.603 150.467,160.77 138.5,157C 108.746,146.527 79.0795,135.86 49.5,125C 44.6751,123.105 39.6751,122.272 34.5,122.5C 39.9454,111.926 46.6121,102.259 54.5,93.5 Z"/></g>
<g><path style="opacity:0.993" fill="#fefcfb" d="M 34.5,122.5 C 39.6751,122.272 44.6751,123.105 49.5,125C 79.0795,135.86 108.746,146.527 138.5,157C 150.467,160.77 154.634,168.603 151,180.5C 141.667,206.5 132.333,232.5 123,258.5C 118.313,267.852 110.813,271.018 100.5,268C 69.9094,256.803 39.2427,245.803 8.5,235C 5.64408,233.741 2.97741,232.241 0.5,230.5C 3.51509,191.741 14.8484,155.741 34.5,122.5 Z"/></g>
<g><path style="opacity:1" fill="#e94a25" d="M 39.5,140.5 C 43.687,140.395 47.687,141.228 51.5,143C 74.766,152.199 98.0993,161.199 121.5,170C 122.931,170.465 124.097,171.299 125,172.5C 119.68,197.765 114.346,223.099 109,248.5C 107.336,253.038 104.169,254.538 99.5,253C 76.6197,244.263 53.6197,235.929 30.5,228C 26.4689,226.568 22.6355,224.734 19,222.5C 18.8461,217.431 19.5128,212.431 21,207.5C 26.7999,186.634 32.1333,165.634 37,144.5C 38.0946,143.307 38.928,141.973 39.5,140.5 Z"/></g>
</svg>
